<svg id="Layer_1" data-name="Layer 1" xmlns="http://www.w3.org/2000/svg" viewBox="0 0 333 31">
    <defs>
        <style>
            .cls-1 {
                fill: #fff;
            }
            .cls-2 {
                fill: #000a02;
            }
            .cls-3 {
                fill: #00c000;
            }
        </style>
    </defs>
    <title>Монтажная область 1</title><rect class="cls-1" width="333" height="31"/><path d="M96.9,20.2l.6,4.7h.1l.7-4.8L104.5,2h2l6.2,18.2.7,4.7h.1l.8-4.8L119.2,2h4l-8.5,28.4h-2.3l-6.1-18.2L105.4,8h-.2l-.8,4.3L98.3,30.5H96L87.3,2h4.2Z"/><path d="M127.3,4a2.34,2.34,0,0,1,.7-1.7,2.93,2.93,0,0,1,3.8,0,2.29,2.29,0,0,1,.8,1.7,1.94,1.94,0,0,1-.8,1.6,2.93,2.93,0,0,1-3.8,0A2.36,2.36,0,0,1,127.3,4Zm.8,5h3.7V30h-3.7Z"/><path d="M145.7,20.6h-2.3V30h-3.7V2h3.7V18.6l2.1-.7,7-8.9h4.3l-6.7,8.1h0l-2.2,1.6,2.5,1.8,7.4,9.5h-4.6Z"/><path d="M162.3,4a2.34,2.34,0,0,1,.7-1.7,2.93,2.93,0,0,1,3.8,0,2.29,2.29,0,0,1,.8,1.7,1.94,1.94,0,0,1-.8,1.6,2.93,2.93,0,0,1-3.8,0A2,2,0,0,1,162.3,4Zm.7,5h3.7V30H163Z"/><path
        d="M188.3,30V18.5a26.61,26.61,0,0,0-.2-3,5.25,5.25,0,0,0-.6-2.1,3.25,3.25,0,0,0-1.3-1.3,4.81,4.81,0,0,0-2.2-.4,5.13,5.13,0,0,0-3.5,1.2,6.91,6.91,0,0,0-2,3V30h-3.7V9h2.5l.7,2.8h.4a10.92,10.92,0,0,1,2.9-2.4,7.69,7.69,0,0,1,4.2-1,6.87,6.87,0,0,1,3.6.9,5.32,5.32,0,0,1,2.2,3.1,9.22,9.22,0,0,1,3-2.9,8.11,8.11,0,0,1,4.1-1.1,10.64,10.64,0,0,1,3.3.4,4.82,4.82,0,0,1,2.2,1.5,5.93,5.93,0,0,1,1.2,2.9,28.08,28.08,0,0,1,.4,4.6V30h-3.7V17.9a21.58,21.58,0,0,0-.2-2.8,3.61,3.61,0,0,0-.7-1.9,3.74,3.74,0,0,0-1.3-1.2,5,5,0,0,0-2.3-.4,5.22,5.22,0,0,0-3.6,1.2,6.88,6.88,0,0,0-1.9,3.6V30Z"/><path
        d="M229.7,28.3a12.68,12.68,0,0,1-3.5,1.7,16.31,16.31,0,0,1-4.5.6,12.62,12.62,0,0,1-4.6-.8,8.31,8.31,0,0,1-3.2-2.2,9.68,9.68,0,0,1-1.8-3.5,16.53,16.53,0,0,1-.6-4.6c0-3.6.9-6.4,2.7-8.3a9.94,9.94,0,0,1,7.6-2.9,16.28,16.28,0,0,1,3.1.3,7.19,7.19,0,0,1,2.8,1.3,6.7,6.7,0,0,1,2,2.6,10.3,10.3,0,0,1,.8,4.3v1.5a7.77,7.77,0,0,1-.2,1.6h-15c.1,2.5.6,4.3,1.8,5.6s3,1.9,5.7,1.9a8.66,8.66,0,0,0,3.2-.6,6.92,6.92,0,0,0,2.4-1.4Zm-2.8-10.9a5.79,5.79,0,0,0-1.3-4.5,5.26,5.26,0,0,0-3.9-1.3,6.6,6.6,0,0,0-4.4,1.3c-1.1.9-1.7,2.4-1.9,4.5Z"/><path
        d="M254.5,22.8c0,1.4,0,2.6.1,3.8s.2,2.4.4,3.5h-2.4l-.9-3.2h-.4a6.78,6.78,0,0,1-2.7,2.6,8,8,0,0,1-4.1,1c-3,0-5.3-.9-6.7-2.7s-2.2-4.5-2.2-8.2.9-6.3,2.7-8.2A10.18,10.18,0,0,1,246,8.5a6.62,6.62,0,0,1,1.5.1c.4,0,.9.1,1.2.1s.8.1,1.1.2l1.1.3V2h3.7V22.8Zm-3.7-9.9a4,4,0,0,0-2-.9,10.88,10.88,0,0,0-2.8-.3,6.57,6.57,0,0,0-5.1,1.9c-1.2,1.3-1.8,3.3-1.8,6.1a14.82,14.82,0,0,0,.3,3.1,9.34,9.34,0,0,0,1,2.5,5.48,5.48,0,0,0,1.8,1.6,6.09,6.09,0,0,0,2.8.6,5.59,5.59,0,0,0,3.8-1.2,6.24,6.24,0,0,0,1.9-3.6V12.9Z"/><path d="M262,4a2.34,2.34,0,0,1,.7-1.7,2.93,2.93,0,0,1,3.8,0,2.29,2.29,0,0,1,.8,1.7,1.94,1.94,0,0,1-.8,1.6,2.93,2.93,0,0,1-3.8,0A2,2,0,0,1,262,4Zm.7,5h3.7V30h-3.7Z"/><path
        d="M278,9V20.6a26.61,26.61,0,0,0,.2,3,5.17,5.17,0,0,0,.7,2.1,3,3,0,0,0,1.4,1.3,5.21,5.21,0,0,0,2.3.5,5.64,5.64,0,0,0,3.9-1.4,8.22,8.22,0,0,0,2.3-3.4V9h3.7V24c0,1,0,2,.1,3.1A22.58,22.58,0,0,0,293,30h-2.5l-1-3.5h-.4a8.06,8.06,0,0,1-2.9,2.9,9.2,9.2,0,0,1-4.6,1.1,10.38,10.38,0,0,1-3.2-.4,5.13,5.13,0,0,1-2.3-1.5,6.7,6.7,0,0,1-1.4-2.8,17.78,17.78,0,0,1-.5-4.4V9Z"/><path
        d="M313.7,30V18.5a26.61,26.61,0,0,0-.2-3,5.25,5.25,0,0,0-.6-2.1,3.25,3.25,0,0,0-1.3-1.3,4.81,4.81,0,0,0-2.2-.4,5.13,5.13,0,0,0-3.5,1.2,6.91,6.91,0,0,0-2,3V30h-3.7V9h2.5l.7,2.8h.4a10.92,10.92,0,0,1,2.9-2.4,7.69,7.69,0,0,1,4.2-1,6.87,6.87,0,0,1,3.6.9,5.32,5.32,0,0,1,2.2,3.1,9.22,9.22,0,0,1,3-2.9,8.11,8.11,0,0,1,4.1-1.1,10.64,10.64,0,0,1,3.3.4,4.83,4.83,0,0,1,2.2,1.5,5.93,5.93,0,0,1,1.2,2.9,28.08,28.08,0,0,1,.4,4.6V30h-3.7V17.9a21.58,21.58,0,0,0-.2-2.8,3.61,3.61,0,0,0-.7-1.9A3.74,3.74,0,0,0,325,12a5,5,0,0,0-2.3-.4,5.22,5.22,0,0,0-3.6,1.2,6.88,6.88,0,0,0-1.9,3.6V30Z"/><polygon class="cls-2" points="64 2 50 16 36 2 22 16 8 2 1 9 22 30 36 16 50 30 71 9 64 2"/><polygon class="cls-3" points="71 23 50 2 36 16 22 2 1 23 8 30 22 16 36 30 50 16 64 30 71 23"/></svg>
